OFF
545 1111 0
-25.6148624 76.72798762 -61.80750642
-29.54176601 54.25451683 -70.14110071
-39.49758283 65.07969163 -44.75997268
-32.19229665 83.57558489 -40.04431755
-36.07015732 70.38075855 11.77387542
-32.90742885 76.42675738 7.7385282
-48.44741772 47.68755157 -41.76922114
-60.08056287 30.84645685 -31.29434277
-45.21184874 60.23743805 37.66341732
-73.22643054 6.7640814 -0.85385652
-49.40896862 47.2822852 73.29739421
-76.66890518 -18.66444242 41.82972213
-46.64102568 39.92622919 94.33716095
-72.72627707 -25.00630146 77.17382811
-39.74464139 32.38866056 114.25266681
-60.27756006 -21.80296164 110.08930384
-28.44211604 27.4075802 142.55730524
-41.06824624 -13.77427387 144.7838008
-25.26341134 19.40492217 162.41543335
-33.06502757 -8.46131316 163.28246557
-22.37271698 12.73203527 178.11279967
-23.70133117 -6.15457147 177.95934056
-13.63275726 8.15764214 193.89660145
-15.20020229 -3.5016572 193.04023754
-11.65970361 8.22130404 203.67856619
-13.50145266 -0.98525864 203.02728883
-10.75548349 5.11174449 215.32622098
-10.64235099 0.07077019 214.56624887
-9.05024963 -0.24070008 223.33287901
-8.67247426 -0.2161122 222.74094411
-21.08525665 100.78859443 -49.51557907
-29.99762119 100.88155469 -31.75291228
-18.7884935 117.02037565 -41.68794515
-28.71198421 115.23297914 -27.54920799
-15.89740734 142.86529361 -34.01138841
-23.40977203 142.75940753 -21.82104457
-13.03194826 172.28210528 -25.59075306
-18.93663078 172.80499009 -17.24592372
-11.98716659 191.44517811 -30.0220867
-16.60931262 193.69999155 -19.32786504
-11.35741824 207.46951712 -37.51080657
-16.39506379 211.50825959 -24.6846834
-11.99295187 210.57452608 -39.58889404
-17.52490765 220.83377552 -28.86847641
-12.56172258 212.67294715 -41.96427784
-20.85595743 228.81714446 -36.36457571
-12.82519683 213.52017343 -44.58258413
-22.26439103 234.60952262 -43.85951754
-11.66959633 217.96940938 -56.23219039
-19.43274178 232.57673794 -53.75451531
-11.21717322 218.75091061 -64.69427558
-15.39512159 230.08572652 -64.27302621
-10.58388793 219.83152597 -70.83996416
-12.79354091 229.23775375 -71.1199444
-9.19418404 221.84653301 -77.27670469
-9.75227158 228.59854755 -79.15500794
-8.68589562 223.01088253 -87.13827063
-8.97340731 227.08923465 -88.07706225
-6.41711703 220.73432647 -93.67005226
-7.36783691 224.58380512 -93.81120019
-5.24884112 220.60180967 -98.93388318
-6.62991849 222.69678175 -98.84153536
-4.76927232 221.11598377 -101.56401638
-5.2483312 222.15583419 -102.10978179
-35.52428468 30.34055139 -72.02076309
-0.97003205 236.86161799 -81.18048752
0.03980568 232.7937016 -88.15881565
-4.40845079 232.76306984 -88.55836562
-6.20596807 236.87182214 -81.755248
-1.993E-05 190.04015155 -34.27692256
-1.813E-05 171.04604049 -32.04379787
-6.87393592 171.91801319 -30.1063906
-6.25064263 190.89249743 -32.78872879
-1.793E-05 75.86817647 -74.89304666
-1.76E-05 47.93278436 -85.80789422
-14.50506494 49.22196957 -80.39759744
-12.37414168 76.07802653 -70.37191472
-3.066E-05 219.9798127 -86.22597843
-2.904E-05 218.39510343 -77.02492588
-4.75147579 219.53947014 -76.92871969
-4.61615277 221.06078323 -86.52120731
3.198E-05 -29.30867036 182.70985559
3.345E-05 -21.23045799 195.45860605
-6.85339798 -19.81259536 194.47719285
-9.31158424 -27.90177691 181.31944313
-1.401E-05 195.81556964 4.75735452
-1.63E-05 216.93059092 0.46102686
-5.47220719 216.87336326 -1.32563911
-5.69343823 195.78180887 2.95792401
3.074E-05 11.24917537 193.92404839
2.774E-05 18.13070459 178.6643749
-11.18634684 15.43136993 178.38856951
-6.77370005 9.7034182 193.91032491
0.09374273 229.64742995 -94.05699055
-3.3668121 229.17386048 -94.37971323
-2.21E-05 204.93740362 -40.66985797
-5.67101014 205.97440918 -39.48488957
-1.555E-05 20.3298756 -86.02990535
-1.129E-05 -7.53088464 -72.75757629
-22.53541805 -1.39151792 -70.46844737
-18.80076877 23.9855554 -82.26207772
-3.171E-05 219.35495308 -93.01529116
-3.41100835 220.04992871 -93.30380907
3.473E-05 -17.16447821 205.22773543
-5.77322021 -16.18633658 204.4237105
-1.87E-06 78.42109103 24.83225867
-3.02E-06 84.1470153 20.46787699
-17.42434752 83.30369883 17.92733872
-18.88681439 77.61617484 22.48898484
-1.851E-05 232.44233806 -5.92511738
-5.2226224 232.23344667 -7.52529262
3.24E-05 10.34914854 203.67856429
-5.87290548 9.28522684 203.67856525
0.09821114 226.36593917 -98.79846046
-2.76320347 225.67974538 -99.07692502
-2.259E-05 207.62884402 -42.43549351
-5.90284131 208.75376156 -41.28840101
-1.62E-06 -47.88382387 -32.15505233
-27.3638862 -42.68222695 -32.43992184
-3.258E-05 219.70348992 -98.16120959
-2.72399342 220.23750398 -98.54920416
3.62E-05 -11.37949668 216.90991516
-5.64046404 -10.81714479 216.12946378
2.46E-06 70.04223342 47.5572517
-22.93072209 67.15669155 42.74067365
0.00641105 221.95000141 -102.51551117
-3.333E-05 221.06142358 -102.1581298
-2.64044211 221.57351742 -101.87769099
-2.46068266 222.4540774 -102.32077103
-2.201E-05 247.45731576 -20.40529858
-6.32509922 247.25816661 -22.11111027
3.452E-05 7.39207047 215.33585488
-5.32637175 6.2891073 215.33585575
-2.314E-05 209.56033012 -44.93430531
-6.17070125 210.83892029 -43.92678306
3.722E-05 -4.04918184 226.58738139
0.37364651 -1.61769013 226.03861136
-4.36884358 -0.66953866 225.26395545
-4.73838176 -2.87229953 225.83893019
9.13E-06 -89.2711735 14.64173839
-18.62817491 -85.55441752 16.39627351
-3.328E-05 220.28582467 -102.18001446
-2.43098216 220.78117169 -101.87834881
8.52E-06 61.43919577 80.75138114
-20.10342703 58.36975894 79.3114766
-4.19E-06 90.69964121 16.32372864
-5.18E-06 97.74722321 13.52373492
-15.28371163 96.24150024 9.74946056
-16.16815503 89.4212449 13.07562749
-2.512E-05 256.3068981 -35.40898728
-6.38400941 255.47158255 -36.2532614
3.702E-05 -1.27678076 226.63513298
-4.74639979 -0.53602707 225.85702815
-2.364E-05 210.55118453 -47.55997172
-6.31303652 211.88794417 -46.48809769
1.839E-05 -96.55643789 68.11347624
-14.40660108 -93.72705941 68.72028025
-6.38E-06 107.30159487 10.5539106
-14.38490719 105.76749835 6.42649365
1.155E-05 56.70929931 97.16857739
-19.1991349 53.58624422 95.74541953
-2.845E-05 256.61568343 -55.73426728
-6.62692166 255.70221597 -55.43640543
-1.692E-05 101.04350525 -57.01564017
-10.5326891 100.71453226 -54.51339106
-2.562E-05 213.62840659 -58.24759923
-6.22634381 215.41933969 -57.48218162
2.53E-05 -78.88095344 118.72785202
-13.46482044 -75.87185752 118.26804514
-7.78E-06 118.56855264 7.21542369
-13.86400113 117.22180027 3.11118911
1.433E-05 50.67012745 111.41008953
-17.57265798 47.7344166 110.08853243
-3E-05 244.88386765 -70.66288855
-6.02654721 244.52877029 -70.38709813
-1.671E-05 116.49340288 -48.58963541
-9.56347926 116.82599217 -46.515853
-2.723E-05 214.97714905 -67.50291899
-5.62820225 216.7905002 -67.1170653
2.907E-05 -64.90767511 148.33630984
-13.40333048 -61.64687887 148.1035808
-9.84E-06 144.78040741 6.69488512
-11.96285074 142.98796181 2.39125267
2.048E-05 36.63354182 142.70684877
-13.32085553 33.88229536 142.65621043
0.0815984 239.99252956 -74.43362872
-5.81620987 240.07590774 -74.47849043
-1.732E-05 142.7564226 -40.12750585
-8.29306053 142.82831604 -38.87273632
-2.821E-05 217.29279901 -72.43467526
-5.34502535 218.23360807 -72.27055719
3.045E-05 -40.81214385 168.01132552
-8.16799202 -39.27132897 166.78279894
-1.211E-05 174.12326256 6.33886376
-7.4100337 174.06516364 3.9206362
2.437E-05 28.12773182 162.5913599
-12.63004916 25.51088454 162.50179661
-3.334E-05 221.17379805 -102.1581298
-2.64044212 221.68589189 -101.87769099
-30.50902813 83.09324239 3.5519607
-11.8048496 242.83810396 -70.04933823
-11.59132776 238.32493858 -74.0513963
-17.85098148 240.92681316 -50.19855536
-17.99812137 239.87837594 -47.7169837
-17.48960983 243.86115382 -47.35617127
-16.93262709 244.1298499 -51.17713868
-17.35446542 240.1695967 -37.17397998
-12.72018602 246.75387661 -23.84269331
-10.72489584 230.37102753 -10.29932852
-11.31967338 216.04743452 -6.08307268
-11.78504469 194.9324132 -1.9936448
-15.2511979 173.12390913 -1.91065673
-19.50853172 141.19545432 -2.3454693
-25.34417063 113.60905195 -2.81964201
-27.23880627 100.63958802 -1.48121046
-28.87702159 90.36104895 0.85367558
-10.8983517 -8.13651322 215.34424785
-9.04193495 -2.25517364 223.31705663
-11.42389629 -13.23923181 203.64653027
-13.12048809 -16.37211678 193.60632289
-18.03645246 -24.5225258 180.07320979
-18.06313646 -35.23559356 165.84124442
-20.19467269 -57.51378893 146.57241983
-27.24787169 -70.19841483 118.49599635
-36.82239275 -83.67768891 69.47143812
-52.30083811 -69.00991143 16.8951518
-52.14306039 -33.37456186 -31.21387881
-40.83940338 3.82389316 -61.88311359
-11.07914809 235.26487228 -81.80861664
-13.21280771 253.57088736 -55.23051339
-13.11622395 252.57747293 -38.55918572
-35.27726424 -96.06730675 61.48944203
-28.18742804 -99.01402919 62.84166781
-25.7679761 -89.50312445 59.35018785
-36.49195769 -84.74581518 59.1818279
-13.55219197 247.9486619 -28.89406176
-4.83014702 222.60421207 -102.05944357
-5.48856174 225.24500303 -99.4081368
-5.24833119 222.04345973 -102.10978179
-6.71772137 228.57904536 -94.69454252
-8.44956473 231.88416292 -88.73359339
-43.62606842 -77.60758392 27.86993855
-26.59658542 -85.79891836 27.7328144
-35.82655533 -114.2946368 59.81697196
-31.32639004 -115.12391591 59.54352848
-39.8629422 -97.55250426 42.6809247
-29.32144443 -102.39663219 44.31222828
-31.57566215 -128.44538326 62.62007502
-31.12516601 -127.96608952 52.28504654
-31.73894718 -113.52955324 48.77927805
-38.34740476 -112.58890428 49.24115933
-37.36927763 -149.74266459 69.94278073
-30.09993805 -149.617685 68.75374092
-36.80367928 -128.09811794 62.17332471
-39.99847761 -126.91521739 52.02077422
-46.23608929 -151.8868646 53.78815746
-38.78899813 -158.3740404 68.65821693
-42.34950843 -145.22231727 54.04457274
-30.57783929 -145.42987403 51.61369748
-23.57980605 -171.14732329 57.20436591
-22.35635857 -158.7299183 47.01081429
-25.00834496 -153.42750072 51.20603469
-26.54720419 -158.18914873 66.874757
-51.03362176 -172.20939827 45.76460198
-25.57933977 -173.20224189 40.93638482
-41.06443909 -170.60047467 61.17969763
-50.93236314 -157.92585903 51.31757337
-27.18699216 -174.94595733 22.44019904
-23.90494008 -167.22159494 20.25697654
-23.86061743 -163.80940062 35.39838217
-54.67774886 -162.71874308 40.5957328
-28.15234305 -170.72847498 3.52029166
-59.40686756 -171.51472525 9.13579268
-59.85578964 -167.90839567 25.75867996
-57.22044679 -174.25581932 27.66359647
-33.26748047 -175.40098459 5.6104163
-54.29462025 -175.31746534 9.42451031
-17.71847863 243.92190108 -39.48202981
-16.41295544 246.953505 -44.52732966
-17.75812418 243.52239483 -44.03042666
-18.8665397 240.41827464 -44.98395163
-16.29480404 247.35622906 -49.917135
-16.69979213 247.96069734 -47.00983902
25.6148329 76.72799149 -61.80751476
32.3151635 82.54831721 -39.46032218
36.93047944 64.05241596 -44.17597926
29.54173496 54.25452129 -70.14111034
36.07015053 70.38076399 11.77386366
60.45415639 29.81918451 -30.71035431
48.71586645 46.66027746 -41.18523109
32.90741983 76.42676235 7.73851748
45.21185191 60.23744488 37.66340259
73.60003762 5.73680993 -0.26987248
49.40898536 47.28229266 73.29737811
77.04253445 -19.69171226 42.41370296
46.64105039 39.92623624 94.33714575
73.09991437 -26.0335719 77.75781023
39.74467372 32.38866656 114.25265386
60.6512076 -22.83023395 110.67329001
28.44215836 27.4075845 142.55729597
41.44190387 -14.8015502 145.36779323
25.26346133 19.40492598 162.41542512
33.43869265 -9.4885907 163.86646061
22.3727731 12.73203865 178.11279238
24.07500068 -7.18185042 178.54333865
13.63281921 8.1576442 193.89659701
15.57387521 -4.52893716 193.6242384
11.65976873 8.2213058 203.67856239
13.87512844 -2.01253892 203.61129024
10.75555288 5.11174612 215.32621747
11.01603038 -0.95651053 215.15025122
9.05032244 -0.24069872 223.33287607
9.04615636 -1.24339321 223.3249471
21.0852253 100.7886065 -49.51558594
30.37120621 99.8542778 -31.16891402
18.78846225 117.02037849 -41.68795127
29.08556844 114.20570206 -26.96520931
15.89737469 142.86529601 -34.01139359
23.78335396 141.73212965 -21.23704416
13.03191391 172.28210724 -25.59075731
19.31020966 171.77771153 -16.66192185
11.9871279 191.44517992 -30.0220906
16.98288656 192.67271264 -18.74386242
11.35737469 207.46951883 -37.51081027
16.7686333 210.48098064 -24.10068071
11.99290717 210.57452789 -39.58889794
17.89847439 219.80649675 -28.28447409
19.52891873 223.79818147 -32.25912767
12.56167679 212.67294904 -41.96428193
21.15936307 227.78986619 -36.23378124
12.82515006 213.52017536 -44.58258831
22.33584837 233.52384396 -46.39449253
11.6695451 217.96941114 -56.23219419
19.43268915 232.57674088 -53.75452164
11.21711911 218.7509123 -64.69427923
15.3950659 230.08572885 -64.27303123
10.58383165 219.83152757 -70.83996761
12.78083294 229.37836154 -71.38886238
9.19412536 221.8465344 -77.27670769
9.75221023 228.81956458 -78.63095251
8.68583356 223.01088385 -87.13826458
8.97334333 226.9378567 -87.42584085
6.41705373 220.73432744 -93.67005435
7.36777298 224.58380623 -93.81120259
5.24877558 220.60181047 -98.93388489
6.22652024 222.59258612 -99.07022419
4.76920584 221.11598449 -101.56401793
5.24242611 221.80342255 -101.55814239
35.52425664 30.34055676 -72.02077466
-1.211E-05 63.80771738 -44.77274369
-1.269E-05 82.57281279 -39.64913659
-1.029E-05 46.4730719 -41.61057855
-7.4E-06 30.37452775 -31.33900856
-1.4E-07 7.84139443 2.77578792
8.46E-06 -19.69127362 42.78701705
1.463E-05 -26.03357742 77.75782214
1.975E-05 -22.74497545 110.67329989
2.5E-05 -17.55758105 145.29624371
2.718E-05 -6.37533691 163.84776364
2.966E-05 -5.12497933 179.65521153
3.177E-05 -2.46710454 193.84074089
3.321E-05 -0.49576054 203.6112925
3.501E-05 0.86464446 215.29343667
-1.247E-05 100.50184647 -29.9372878
-1.288E-05 114.78551014 -25.84828667
-1.403E-05 141.96494798 -20.34668466
-1.56E-05 171.98990777 -16.08198399
-1.749E-05 192.48810506 -18.13464463
-1.971E-05 210.28782188 -23.52221882
-2.114E-05 219.66190728 -27.97648585
-2.308E-05 227.78986459 -36.1027187
-2.455E-05 231.74288213 -43.32682692
-2.646E-05 232.58329948 -54.64437187
4.20014593 236.87596519 -80.77399538
4.47850425 232.303617 -88.23201711
6.25060312 190.89249837 -32.78873083
6.87390015 171.91801423 -30.10639284
12.37410726 76.0780284 -70.37191875
14.50503131 49.22197176 -80.39760217
4.6160912 221.06078392 -86.52120882
4.75141757 219.53947085 -76.92872124
9.31164753 -27.90177551 181.31944009
6.85346434 -19.81259433 194.47719062
5.69340964 195.78180973 2.95792216
5.47217401 216.87336409 -1.32564089
6.77376177 9.70341923 193.91032271
11.18640264 15.43137162 178.38856586
3.50141261 228.81878187 -94.12749848
5.67096617 205.97441003 -39.48489142
18.80073834 23.98555824 -82.26208384
22.5353953 -1.39151452 -70.46845471
3.41094472 220.04992922 -93.30381018
5.77328926 -16.18633571 204.42370862
18.88681 77.6161777 22.48897869
17.42434079 83.30370146 17.92733304
5.22258488 232.23344746 -7.52529432
5.87297045 9.28522773 203.67856333
2.88640869 225.38767176 -98.86945719
5.90279633 208.75376245 -41.28840293
27.36388207 -42.68222282 -32.43993076
2.72392805 220.23750439 -98.54920505
5.6405361 -10.81714394 216.12946194
22.93072588 67.15669502 42.74066618
2.49140887 222.19805742 -102.13893001
2.64037545 221.57351782 -101.87769185
6.32505469 247.25816756 -22.11111233
5.32644096 6.28910811 215.33585401
6.17065511 210.83892122 -43.92678507
4.73845578 -2.87229881 225.83892864
4.74252685 -1.69682032 225.84795984
17.96223392 -85.64276232 14.31111436
2.43091563 220.78117206 -101.8783496
20.10344406 58.36976197 79.31147005
16.16814579 89.42124735 13.07562222
15.28369917 96.24150255 9.74945558
6.38395902 255.47158352 -36.25326348
4.74647347 -0.53602635 225.8570266
6.31298937 211.88794512 -46.48809975
14.88533907 -93.98041086 68.36761415
14.38489331 105.76750052 6.42648896
19.199158 53.58624712 95.74541328
6.62686499 255.70221697 -55.43640758
10.53265613 100.71453385 -54.51339449
6.22629256 215.41934063 -57.48218365
13.46487043 -75.87185549 118.26804076
13.86398444 117.22180236 3.11118459
17.57268664 47.73441925 110.0885267
6.02648736 244.5287712 -70.38710009
9.56344646 116.82599361 -46.51585611
5.62814764 216.79050105 -67.11706714
13.40338805 -61.64687685 148.10357643
11.96282992 142.98796361 2.39124877
13.3208969 33.88229737 142.65620609
5.89777852 239.95347183 -74.46650111
8.2930263 142.82831729 -38.87273903
5.34496885 218.23360887 -72.27055893
8.1680523 -39.27132773 166.78279628
7.4100087 174.06516475 3.92063378
12.63009826 25.51088645 162.50179249
2.64037545 221.68589228 -101.87769185
30.50901674 83.093247 3.55195076
17.85092874 240.92681586 -50.19856117
16.93257355 244.12985245 -51.1771442
17.48955646 243.86115646 -47.35617697
17.9980696 239.87837866 -47.71698957
11.86212514 237.68249833 -17.791132
10.7248577 230.37102914 -10.29933201
14.31166604 225.08877184 -19.29190305
12.99939259 244.99396751 -25.28293199
11.31963878 216.04743622 -6.08307637
11.78501461 194.93241498 -1.99364864
15.25117114 173.12391143 -1.9106617
19.50850963 141.19545727 -2.34547566
25.34415256 113.60905578 -2.81965027
27.23879059 100.63959213 -1.48121934
28.87700823 90.36105331 0.85366617
9.04200806 -2.25517228 223.31705369
10.8984231 -8.13651158 215.3442443
11.42396464 -13.23923008 203.64652655
13.12055364 -16.3721148 193.60631862
18.03651483 -24.52252308 180.07320391
18.06319581 -35.23559084 165.84123853
20.19472913 -57.51378588 146.57241325
27.2479209 -70.19841071 118.49598747
36.99886978 -83.76469755 69.31175782
52.2688448 -69.02044586 16.74402657
52.14305526 -33.37455399 -31.2138958
40.83938264 3.82389932 -61.88312689
11.59126765 238.32494033 -74.05140008
8.95408593 235.51044071 -79.9278632
11.80479011 242.83810574 -70.04934208
13.21275143 253.57088936 -55.2305177
13.11617325 252.57747491 -38.55918999
35.85899767 -96.73442809 59.34485331
36.84891995 -84.97039857 58.60885019
26.19787983 -89.8416306 58.48295288
28.82568957 -99.76208574 60.55739554
13.37690542 247.82793383 -29.87748937
5.56939126 224.67331811 -99.0020634
4.83823644 222.10438555 -101.70440158
5.24242612 221.69104809 -101.55815128
6.78725516 227.88087047 -94.19860195
8.40955446 231.01258209 -88.11447879
43.46219853 -77.72260962 26.87058542
26.0831819 -86.02349442 25.50513896
35.83054867 -116.11602749 51.47811196
31.29320749 -116.9577163 51.19468318
39.27069745 -98.35215077 37.61864755
28.58553936 -103.37136651 38.3113007
31.13773333 -131.17125483 49.12398238
30.53028653 -115.15345821 38.67875297
29.04048114 -130.4076562 35.93555229
37.20118252 -114.21563494 39.12624972
36.79311634 -153.72735685 48.96556209
36.22769322 -130.84470894 48.06719759
29.47275149 -153.52788873 48.38511744
37.81301807 -129.33436474 35.22642817
41.76997812 -155.02664065 24.7999582
38.54970132 -148.32648461 28.14230346
37.3737553 -162.59557045 43.57182774
26.62704333 -148.3985929 26.3259938
19.75680302 -174.75548076 27.21389052
25.18254816 -162.27542593 43.25251096
20.63760771 -156.47113678 23.73016866
17.12529176 -161.44512485 17.60695987
44.31458944 -174.51689873 10.00983124
37.27792623 -174.47480106 29.21407889
18.8073435 -175.27978833 6.67004736
45.62970545 -160.8246009 19.79133608
18.40036975 -175.26542377 -11.6696026
16.8014631 -165.40790251 3.05211741
15.239044 -167.44568313 -11.80401677
47.68856433 -164.55214046 6.82726979
18.6600073 -169.74613268 -26.55240568
53.27873415 -168.38627638 -7.00362246
53.84621335 -170.82896758 -20.81611815
50.21937502 -174.84301712 -6.7651829
47.8142772 -174.58317469 -22.04051171
24.14392289 -174.46484639 -26.0491904
17.75807306 243.52239752 -44.03043245
16.41290364 246.95350748 -44.527335
17.99852942 242.16017939 -40.92268123
18.86648874 240.41827749 -44.98395777
16.29475043 247.35623152 -49.91714475
16.69973938 247.96069986 -47.00984447
9.75221024 228.70717233 -78.63095251
8.97334334 226.82548224 -87.42584085
7.36777299 224.47141399 -93.81120259
6.22652025 222.48021166 -99.07022419
-9.75227046 228.48617308 -79.15500794
-8.97340675 226.97686018 -88.07706225
-7.3678369 224.47143066 -93.81120019
-6.62991848 222.58414062 -98.84153536
10.27948778 230.08572846 -64.2730304
-10.21765062 230.08572692 -64.27302706
-2.784E-05 230.08572769 -64.27302872
5.40535209 224.64937119 -87.18857566
3.47908189 222.83724615 -94.82708773
2.22308085 222.25420019 -97.2441874
-0.78557877 222.25419996 -97.13485247
-2.53823753 222.8372457 -94.82708675
-4.69103113 224.64937043 -87.18857401
-6.84382445 226.46147738 -79.55006127
7.33162258 226.46147845 -79.55006358
17.4288901 240.270507 -36.59119534
3 0 1 2 255 255 255
3 2 3 0 255 255 255
3 4 5 6 255 255 255
3 6 7 4 255 255 255
3 8 4 7 255 255 255
3 7 9 8 255 255 255
3 10 8 9 255 255 255
3 9 11 10 255 255 255
3 12 10 11 255 255 255
3 11 13 12 255 255 255
3 14 12 13 255 255 255
3 13 15 14 255 255 255
3 16 14 15 255 255 255
3 15 17 16 255 255 255
3 18 16 17 255 255 255
3 17 19 18 255 255 255
3 20 18 19 255 255 255
3 19 21 20 255 255 255
3 22 20 21 255 255 255
3 21 23 22 255 255 255
3 24 22 23 255 255 255
3 23 25 24 255 255 255
3 26 24 25 255 255 255
3 25 27 26 255 255 255
3 28 26 27 255 255 255
3 27 29 28 255 255 255
3 30 0 3 255 255 255
3 3 31 30 255 255 255
3 32 30 31 255 255 255
3 31 33 32 255 255 255
3 34 32 33 255 255 255
3 33 35 34 255 255 255
3 36 34 35 255 255 255
3 35 37 36 255 255 255
3 38 36 37 255 255 255
3 37 39 38 255 255 255
3 40 38 39 255 255 255
3 39 41 40 255 255 255
3 42 40 41 255 255 255
3 41 43 42 255 255 255
3 44 42 43 255 255 255
3 43 45 44 255 255 255
3 46 44 45 255 255 255
3 45 47 46 255 255 255
3 48 46 47 255 255 255
3 47 49 48 255 255 255
3 50 48 49 255 255 255
3 49 51 50 255 255 255
3 52 50 51 255 255 255
3 51 53 52 255 255 255
3 54 52 53 255 255 255
3 53 55 54 255 255 255
3 56 54 55 255 255 255
3 55 57 56 255 255 255
3 58 56 57 255 255 255
3 57 59 58 255 255 255
3 60 58 59 255 255 255
3 59 61 60 255 255 255
3 62 60 61 255 255 255
3 61 63 62 255 255 255
3 1 64 6 255 255 255
3 6 2 1 255 255 255
3 65 66 67 255 255 255
3 67 68 65 255 255 255
3 69 70 71 255 255 255
3 71 72 69 255 255 255
3 73 74 75 255 255 255
3 75 76 73 255 255 255
3 77 78 79 255 255 255
3 79 80 77 255 255 255
3 81 82 83 255 255 255
3 83 84 81 255 255 255
3 85 86 87 255 255 255
3 87 88 85 255 255 255
3 89 90 91 255 255 255
3 91 92 89 255 255 255
3 66 93 94 255 255 255
3 94 67 66 255 255 255
3 95 69 72 255 255 255
3 72 96 95 255 255 255
3 97 98 99 255 255 255
3 99 100 97 255 255 255
3 101 77 80 255 255 255
3 80 102 101 255 255 255
3 82 103 104 255 255 255
3 104 83 82 255 255 255
3 105 106 107 255 255 255
3 107 108 105 255 255 255
3 86 109 110 255 255 255
3 110 87 86 255 255 255
3 111 89 92 255 255 255
3 92 112 111 255 255 255
3 93 113 114 255 255 255
3 114 94 93 255 255 255
3 115 95 96 255 255 255
3 96 116 115 255 255 255
3 98 117 118 255 255 255
3 118 99 98 255 255 255
3 119 101 102 255 255 255
3 102 120 119 255 255 255
3 103 121 122 255 255 255
3 122 104 103 255 255 255
3 123 105 108 255 255 255
3 108 124 123 255 255 255
3 125 126 127 255 255 255
3 127 128 125 255 255 255
3 109 129 130 255 255 255
3 130 110 109 255 255 255
3 131 111 112 255 255 255
3 112 132 131 255 255 255
3 113 125 128 255 255 255
3 128 114 113 255 255 255
3 133 115 116 255 255 255
3 116 134 133 255 255 255
3 135 136 137 255 255 255
3 137 138 135 255 255 255
3 117 139 140 255 255 255
3 140 118 117 255 255 255
3 141 119 120 255 255 255
3 120 142 141 255 255 255
3 121 135 138 255 255 255
3 138 122 121 255 255 255
3 143 123 124 255 255 255
3 124 144 143 255 255 255
3 145 146 147 255 255 255
3 147 148 145 255 255 255
3 129 149 150 255 255 255
3 150 130 129 255 255 255
3 151 131 132 255 255 255
3 132 152 151 255 255 255
3 74 97 100 255 255 255
3 100 75 74 255 255 255
3 153 133 134 255 255 255
3 134 154 153 255 255 255
3 139 155 156 255 255 255
3 156 140 139 255 255 255
3 146 157 158 255 255 255
3 158 147 146 255 255 255
3 159 143 144 255 255 255
3 144 160 159 255 255 255
3 149 161 162 255 255 255
3 162 150 149 255 255 255
3 163 73 76 255 255 255
3 76 164 163 255 255 255
3 165 153 154 255 255 255
3 154 166 165 255 255 255
3 155 167 168 255 255 255
3 168 156 155 255 255 255
3 157 169 170 255 255 255
3 170 158 157 255 255 255
3 171 159 160 255 255 255
3 160 172 171 255 255 255
3 161 173 174 255 255 255
3 174 162 161 255 255 255
3 175 163 164 255 255 255
3 164 176 175 255 255 255
3 177 165 166 255 255 255
3 166 178 177 255 255 255
3 167 179 180 255 255 255
3 180 168 167 255 255 255
3 169 181 182 255 255 255
3 182 170 169 255 255 255
3 183 171 172 255 255 255
3 172 184 183 255 255 255
3 173 185 186 255 255 255
3 186 174 173 255 255 255
3 187 175 176 255 255 255
3 176 188 187 255 255 255
3 189 177 178 255 255 255
3 178 190 189 255 255 255
3 179 191 192 255 255 255
3 192 180 179 255 255 255
3 181 193 194 255 255 255
3 194 182 181 255 255 255
3 195 183 184 255 255 255
3 184 196 195 255 255 255
3 185 65 68 255 255 255
3 68 186 185 255 255 255
3 70 187 188 255 255 255
3 188 71 70 255 255 255
3 78 189 190 255 255 255
3 190 79 78 255 255 255
3 191 81 84 255 255 255
3 84 192 191 255 255 255
3 106 145 148 255 255 255
3 148 107 106 255 255 255
3 193 85 88 255 255 255
3 88 194 193 255 255 255
3 90 195 196 255 255 255
3 196 91 90 255 255 255
3 136 151 152 255 255 255
3 152 137 136 255 255 255
3 197 141 142 255 255 255
3 142 198 197 255 255 255
3 2 6 5 255 255 255
3 5 199 2 255 255 255
3 200 201 53 255 255 255
3 53 51 200 255 255 255
3 202 203 204 255 255 255
3 204 205 202 255 255 255
3 206 47 45 255 255 255
3 45 207 206 255 255 255
3 45 43 208 255 255 255
3 208 207 45 255 255 255
3 43 41 209 255 255 255
3 209 208 43 255 255 255
3 41 39 210 255 255 255
3 210 209 41 255 255 255
3 39 37 211 255 255 255
3 211 210 39 255 255 255
3 37 35 212 255 255 255
3 212 211 37 255 255 255
3 35 33 213 255 255 255
3 213 212 35 255 255 255
3 33 31 214 255 255 255
3 214 213 33 255 255 255
3 31 3 215 255 255 255
3 215 214 31 255 255 255
3 29 27 216 255 255 255
3 216 217 29 255 255 255
3 27 25 218 255 255 255
3 218 216 27 255 255 255
3 25 23 219 255 255 255
3 219 218 25 255 255 255
3 23 21 220 255 255 255
3 220 219 23 255 255 255
3 21 19 221 255 255 255
3 221 220 21 255 255 255
3 19 17 222 255 255 255
3 222 221 19 255 255 255
3 17 15 223 255 255 255
3 223 222 17 255 255 255
3 15 13 224 255 255 255
3 224 223 15 255 255 255
3 13 11 225 255 255 255
3 225 224 13 255 255 255
3 11 9 226 255 255 255
3 226 225 11 255 255 255
3 9 7 227 255 255 255
3 227 226 9 255 255 255
3 7 6 64 255 255 255
3 64 227 7 255 255 255
3 3 2 199 255 255 255
3 199 215 3 255 255 255
3 198 142 62 255 255 255
3 62 63 198 255 255 255
3 137 152 28 255 255 255
3 28 29 137 255 255 255
3 91 196 18 255 255 255
3 18 20 91 255 255 255
3 194 88 210 255 255 255
3 210 211 194 255 255 255
3 107 148 199 255 255 255
3 199 5 107 255 255 255
3 192 84 220 255 255 255
3 220 221 192 255 255 255
3 79 190 52 255 255 255
3 52 54 79 255 255 255
3 71 188 34 255 255 255
3 34 36 71 255 255 255
3 186 68 228 255 255 255
3 228 201 186 255 255 255
3 196 184 16 255 255 255
3 16 18 196 255 255 255
3 182 194 211 255 255 255
3 211 212 182 255 255 255
3 222 192 221 255 255 255
3 190 178 50 255 255 255
3 50 52 190 255 255 255
3 188 176 32 255 255 255
3 32 34 188 255 255 255
3 174 186 201 255 255 255
3 201 200 174 255 255 255
3 184 172 14 255 255 255
3 14 16 184 255 255 255
3 170 182 212 255 255 255
3 212 213 170 255 255 255
3 168 180 222 255 255 255
3 222 223 168 255 255 255
3 178 166 48 255 255 255
3 48 50 178 255 255 255
3 176 164 30 255 255 255
3 30 32 176 255 255 255
3 162 174 200 255 255 255
3 200 229 162 255 255 255
3 172 160 12 255 255 255
3 12 14 172 255 255 255
3 158 170 213 255 255 255
3 213 214 158 255 255 255
3 156 168 223 255 255 255
3 223 224 156 255 255 255
3 166 154 46 255 255 255
3 46 48 166 255 255 255
3 164 76 0 255 255 255
3 0 30 164 255 255 255
3 150 162 229 255 255 255
3 229 230 150 255 255 255
3 160 144 10 255 255 255
3 10 12 160 255 255 255
3 147 158 214 255 255 255
3 214 215 147 255 255 255
3 231 232 233 255 255 255
3 233 234 231 255 255 255
3 154 134 44 255 255 255
3 44 46 154 255 255 255
3 75 100 64 255 255 255
3 64 1 75 255 255 255
3 152 132 26 255 255 255
3 26 28 152 255 255 255
3 130 150 230 255 255 255
3 230 235 207 255 255 255
3 207 130 230 255 255 255
3 148 147 215 255 255 255
3 215 199 148 255 255 255
3 144 124 8 255 255 255
3 8 10 144 255 255 255
3 122 138 217 255 255 255
3 217 216 122 255 255 255
3 142 120 60 255 255 255
3 60 62 142 255 255 255
3 118 140 225 255 255 255
3 225 226 118 255 255 255
3 138 137 29 255 255 255
3 29 217 138 255 255 255
3 134 116 42 255 255 255
3 42 44 134 255 255 255
3 114 128 236 255 255 255
3 236 237 114 255 255 255
3 132 112 24 255 255 255
3 24 26 132 255 255 255
3 110 130 207 255 255 255
3 207 208 110 255 255 255
3 128 127 238 255 255 255
3 238 236 128 255 255 255
3 124 108 4 255 255 255
3 4 8 124 255 255 255
3 104 122 216 255 255 255
3 216 218 104 255 255 255
3 120 102 58 255 255 255
3 58 60 120 255 255 255
3 99 118 226 255 255 255
3 226 227 99 255 255 255
3 116 96 40 255 255 255
3 40 42 116 255 255 255
3 94 114 237 255 255 255
3 237 239 94 255 255 255
3 112 92 22 255 255 255
3 22 24 112 255 255 255
3 87 110 208 255 255 255
3 208 209 87 255 255 255
3 108 107 5 255 255 255
3 5 4 108 255 255 255
3 83 104 218 255 255 255
3 218 219 83 255 255 255
3 102 80 56 255 255 255
3 56 58 102 255 255 255
3 100 99 227 255 255 255
3 227 64 100 255 255 255
3 96 72 38 255 255 255
3 38 40 96 255 255 255
3 67 94 239 255 255 255
3 239 240 67 255 255 255
3 92 91 20 255 255 255
3 20 22 92 255 255 255
3 88 87 209 255 255 255
3 209 210 88 255 255 255
3 84 83 219 255 255 255
3 219 220 84 255 255 255
3 80 79 54 255 255 255
3 54 56 80 255 255 255
3 76 75 1 255 255 255
3 1 0 76 255 255 255
3 72 71 36 255 255 255
3 36 38 72 255 255 255
3 68 67 240 255 255 255
3 240 228 68 255 255 255
3 224 225 241 255 255 255
3 241 234 224 255 255 255
3 225 140 242 255 255 255
3 242 241 225 255 255 255
3 156 224 234 255 255 255
3 234 233 156 255 255 255
3 140 156 233 255 255 255
3 233 242 140 255 255 255
3 243 244 232 255 255 255
3 232 231 243 255 255 255
3 245 231 234 255 255 255
3 234 241 245 255 255 255
3 232 246 242 255 255 255
3 242 233 232 255 255 255
3 246 245 241 255 255 255
3 241 242 246 255 255 255
3 247 248 249 255 255 255
3 249 244 247 255 255 255
3 250 243 231 255 255 255
3 231 245 250 255 255 255
3 244 249 246 255 255 255
3 246 232 244 255 255 255
3 249 250 245 255 255 255
3 245 246 249 255 255 255
3 251 252 247 255 255 255
3 247 253 251 255 255 255
3 248 254 250 255 255 255
3 250 249 248 255 255 255
3 253 247 244 255 255 255
3 244 243 253 255 255 255
3 254 253 243 255 255 255
3 243 250 254 255 255 255
3 255 256 251 255 255 255
3 251 257 255 255 255 255
3 257 251 253 255 255 255
3 253 254 257 255 255 255
3 252 258 248 255 255 255
3 248 247 252 255 255 255
3 258 257 254 255 255 255
3 254 248 258 255 255 255
3 259 260 261 255 255 255
3 261 262 259 255 255 255
3 262 261 258 255 255 255
3 258 252 262 255 255 255
3 261 255 257 255 255 255
3 257 258 261 255 255 255
3 256 262 252 255 255 255
3 252 251 256 255 255 255
3 263 264 259 255 255 255
3 259 265 263 255 255 255
3 260 266 255 255 255 255
3 255 261 260 255 255 255
3 265 259 262 255 255 255
3 262 256 265 255 255 255
3 266 265 256 255 255 255
3 256 255 266 255 255 255
3 267 268 269 255 255 255
3 269 264 267 255 255 255
3 270 263 265 255 255 255
3 265 266 270 255 255 255
3 264 269 260 255 255 255
3 260 259 264 255 255 255
3 269 270 266 255 255 255
3 266 260 269 255 255 255
3 271 272 273 255 255 255
3 273 268 271 255 255 255
3 268 273 270 255 255 255
3 270 269 268 255 255 255
3 274 267 264 255 255 255
3 264 263 274 255 255 255
3 273 274 263 255 255 255
3 263 270 273 255 255 255
3 271 275 276 255 255 255
3 276 272 271 255 255 255
3 276 275 267 255 255 255
3 267 274 276 255 255 255
3 272 276 274 255 255 255
3 274 273 272 255 255 255
3 275 271 268 255 255 255
3 268 267 275 255 255 255
3 277 230 278 255 255 255
3 279 280 47 255 255 255
3 277 278 279 255 255 255
3 279 47 277 255 255 255
3 229 49 202 255 255 255
3 205 281 229 255 255 255
3 229 202 205 255 255 255
3 230 229 281 255 255 255
3 282 278 230 255 255 255
3 230 281 282 255 255 255
3 49 47 280 255 255 255
3 203 202 49 255 255 255
3 49 280 203 255 255 255
3 203 280 279 255 255 255
3 279 204 203 255 255 255
3 204 279 278 255 255 255
3 278 282 204 255 255 255
3 205 204 282 255 255 255
3 282 281 205 255 255 255
3 283 284 285 255 255 255
3 285 286 283 255 255 255
3 287 288 289 255 255 255
3 289 290 287 255 255 255
3 291 292 288 255 255 255
3 288 287 291 255 255 255
3 293 294 292 255 255 255
3 292 291 293 255 255 255
3 295 296 294 255 255 255
3 294 293 295 255 255 255
3 297 298 296 255 255 255
3 296 295 297 255 255 255
3 299 300 298 255 255 255
3 298 297 299 255 255 255
3 301 302 300 255 255 255
3 300 299 301 255 255 255
3 303 304 302 255 255 255
3 302 301 303 255 255 255
3 305 306 304 255 255 255
3 304 303 305 255 255 255
3 307 308 306 255 255 255
3 306 305 307 255 255 255
3 309 310 308 255 255 255
3 308 307 309 255 255 255
3 311 312 310 255 255 255
3 310 309 311 255 255 255
3 313 314 284 255 255 255
3 284 283 313 255 255 255
3 315 316 314 255 255 255
3 314 313 315 255 255 255
3 317 318 316 255 255 255
3 316 315 317 255 255 255
3 319 320 318 255 255 255
3 318 317 319 255 255 255
3 321 322 320 255 255 255
3 320 319 321 255 255 255
3 323 324 322 255 255 255
3 322 321 323 255 255 255
3 325 326 324 255 255 255
3 324 323 325 255 255 255
3 327 326 325 255 255 255
3 325 328 329 255 255 255
3 329 327 325 255 255 255
3 330 331 329 255 255 255
3 329 328 330 255 255 255
3 332 333 331 255 255 255
3 331 330 332 255 255 255
3 334 335 333 255 255 255
3 333 332 334 255 255 255
3 336 337 335 255 255 255
3 335 334 336 255 255 255
3 338 339 337 255 255 255
3 337 336 338 255 255 255
3 340 341 339 255 255 255
3 339 338 340 255 255 255
3 342 343 341 255 255 255
3 341 340 342 255 255 255
3 344 345 343 255 255 255
3 343 342 344 255 255 255
3 346 347 345 255 255 255
3 345 344 346 255 255 255
3 286 285 289 255 255 255
3 289 348 286 255 255 255
3 73 74 349 255 255 255
3 349 350 73 255 255 255
3 105 106 351 255 255 255
3 351 352 105 255 255 255
3 123 105 352 255 255 255
3 352 353 123 255 255 255
3 143 123 353 255 255 255
3 353 354 143 255 255 255
3 159 143 354 255 255 255
3 354 355 159 255 255 255
3 171 159 355 255 255 255
3 355 356 171 255 255 255
3 183 171 356 255 255 255
3 356 357 183 255 255 255
3 195 183 357 255 255 255
3 357 358 195 255 255 255
3 90 195 358 255 255 255
3 358 359 90 255 255 255
3 89 90 359 255 255 255
3 359 360 89 255 255 255
3 111 89 360 255 255 255
3 360 361 111 255 255 255
3 131 111 361 255 255 255
3 361 362 131 255 255 255
3 151 131 362 255 255 255
3 362 136 151 255 255 255
3 163 73 350 255 255 255
3 350 363 163 255 255 255
3 175 163 363 255 255 255
3 363 364 175 255 255 255
3 187 175 364 255 255 255
3 364 365 187 255 255 255
3 70 187 365 255 255 255
3 365 366 70 255 255 255
3 69 70 366 255 255 255
3 366 367 69 255 255 255
3 95 69 367 255 255 255
3 367 368 95 255 255 255
3 115 95 368 255 255 255
3 368 369 115 255 255 255
3 133 115 369 255 255 255
3 369 370 133 255 255 255
3 153 133 370 255 255 255
3 370 371 153 255 255 255
3 165 153 371 255 255 255
3 371 372 165 255 255 255
3 74 97 351 255 255 255
3 351 349 74 255 255 255
3 65 373 374 255 255 255
3 374 66 65 255 255 255
3 69 375 376 255 255 255
3 376 70 69 255 255 255
3 73 377 378 255 255 255
3 378 74 73 255 255 255
3 77 379 380 255 255 255
3 380 78 77 255 255 255
3 81 381 382 255 255 255
3 382 82 81 255 255 255
3 85 383 384 255 255 255
3 384 86 85 255 255 255
3 89 385 386 255 255 255
3 386 90 89 255 255 255
3 66 374 387 255 255 255
3 387 93 66 255 255 255
3 95 388 375 255 255 255
3 375 69 95 255 255 255
3 97 389 390 255 255 255
3 390 98 97 255 255 255
3 101 391 379 255 255 255
3 379 77 101 255 255 255
3 82 382 392 255 255 255
3 392 103 82 255 255 255
3 105 393 394 255 255 255
3 394 106 105 255 255 255
3 86 384 395 255 255 255
3 395 109 86 255 255 255
3 111 396 385 255 255 255
3 385 89 111 255 255 255
3 93 387 397 255 255 255
3 397 113 93 255 255 255
3 115 398 388 255 255 255
3 388 95 115 255 255 255
3 98 390 399 255 255 255
3 399 117 98 255 255 255
3 119 400 391 255 255 255
3 391 101 119 255 255 255
3 103 392 401 255 255 255
3 401 121 103 255 255 255
3 123 402 393 255 255 255
3 393 105 123 255 255 255
3 125 403 404 255 255 255
3 404 126 125 255 255 255
3 109 395 405 255 255 255
3 405 129 109 255 255 255
3 131 406 396 255 255 255
3 396 111 131 255 255 255
3 113 397 403 255 255 255
3 403 125 113 255 255 255
3 133 407 398 255 255 255
3 398 115 133 255 255 255
3 135 408 409 255 255 255
3 409 136 135 255 255 255
3 117 399 410 255 255 255
3 410 139 117 255 255 255
3 141 411 400 255 255 255
3 400 119 141 255 255 255
3 121 401 408 255 255 255
3 408 135 121 255 255 255
3 143 412 402 255 255 255
3 402 123 143 255 255 255
3 145 413 414 255 255 255
3 414 146 145 255 255 255
3 129 405 415 255 255 255
3 415 149 129 255 255 255
3 151 416 406 255 255 255
3 406 131 151 255 255 255
3 74 378 389 255 255 255
3 389 97 74 255 255 255
3 153 417 407 255 255 255
3 407 133 153 255 255 255
3 139 410 418 255 255 255
3 418 155 139 255 255 255
3 146 414 419 255 255 255
3 419 157 146 255 255 255
3 159 420 412 255 255 255
3 412 143 159 255 255 255
3 149 415 421 255 255 255
3 421 161 149 255 255 255
3 163 422 377 255 255 255
3 377 73 163 255 255 255
3 165 423 417 255 255 255
3 417 153 165 255 255 255
3 155 418 424 255 255 255
3 424 167 155 255 255 255
3 157 419 425 255 255 255
3 425 169 157 255 255 255
3 171 426 420 255 255 255
3 420 159 171 255 255 255
3 161 421 427 255 255 255
3 427 173 161 255 255 255
3 175 428 422 255 255 255
3 422 163 175 255 255 255
3 177 429 423 255 255 255
3 423 165 177 255 255 255
3 167 424 430 255 255 255
3 430 179 167 255 255 255
3 169 425 431 255 255 255
3 431 181 169 255 255 255
3 183 432 426 255 255 255
3 426 171 183 255 255 255
3 173 427 433 255 255 255
3 433 185 173 255 255 255
3 187 434 428 255 255 255
3 428 175 187 255 255 255
3 189 435 429 255 255 255
3 429 177 189 255 255 255
3 179 430 436 255 255 255
3 436 191 179 255 255 255
3 181 431 437 255 255 255
3 437 193 181 255 255 255
3 195 438 432 255 255 255
3 432 183 195 255 255 255
3 185 433 373 255 255 255
3 373 65 185 255 255 255
3 70 376 434 255 255 255
3 434 187 70 255 255 255
3 78 380 435 255 255 255
3 435 189 78 255 255 255
3 191 436 381 255 255 255
3 381 81 191 255 255 255
3 106 394 413 255 255 255
3 413 145 106 255 255 255
3 193 437 383 255 255 255
3 383 85 193 255 255 255
3 90 386 438 255 255 255
3 438 195 90 255 255 255
3 136 409 416 255 255 255
3 416 151 136 255 255 255
3 197 439 411 255 255 255
3 411 141 197 255 255 255
3 349 351 106 255 255 255
3 106 145 349 255 255 255
3 372 371 149 255 255 255
3 149 161 372 255 255 255
3 371 370 129 255 255 255
3 129 149 371 255 255 255
3 370 369 109 255 255 255
3 109 129 370 255 255 255
3 369 368 86 255 255 255
3 86 109 369 255 255 255
3 368 367 85 255 255 255
3 85 86 368 255 255 255
3 367 366 193 255 255 255
3 193 85 367 255 255 255
3 366 365 181 255 255 255
3 181 193 366 255 255 255
3 365 364 169 255 255 255
3 169 181 365 255 255 255
3 364 363 157 255 255 255
3 157 169 364 255 255 255
3 363 350 146 255 255 255
3 146 157 363 255 255 255
3 136 362 121 255 255 255
3 121 135 136 255 255 255
3 362 361 103 255 255 255
3 103 121 362 255 255 255
3 361 360 82 255 255 255
3 82 103 361 255 255 255
3 360 359 81 255 255 255
3 81 82 360 255 255 255
3 359 358 191 255 255 255
3 191 81 359 255 255 255
3 358 357 179 255 255 255
3 179 191 358 255 255 255
3 357 356 167 255 255 255
3 167 179 357 255 255 255
3 356 355 155 255 255 255
3 155 167 356 255 255 255
3 355 354 139 255 255 255
3 139 155 355 255 255 255
3 354 353 117 255 255 255
3 117 139 354 255 255 255
3 353 352 98 255 255 255
3 98 117 353 255 255 255
3 352 351 97 255 255 255
3 97 98 352 255 255 255
3 350 349 145 255 255 255
3 145 146 350 255 255 255
3 285 440 290 255 255 255
3 290 289 285 255 255 255
3 441 442 443 255 255 255
3 443 444 441 255 255 255
3 445 446 447 255 255 255
3 447 326 327 255 255 255
3 327 329 448 255 255 255
3 448 445 447 255 255 255
3 447 327 448 255 255 255
3 447 446 449 255 255 255
3 449 324 326 255 255 255
3 326 447 449 255 255 255
3 324 449 450 255 255 255
3 450 322 324 255 255 255
3 322 450 451 255 255 255
3 451 320 322 255 255 255
3 320 451 452 255 255 255
3 452 318 320 255 255 255
3 318 452 453 255 255 255
3 453 316 318 255 255 255
3 316 453 454 255 255 255
3 454 314 316 255 255 255
3 314 454 455 255 255 255
3 455 284 314 255 255 255
3 312 456 457 255 255 255
3 457 310 312 255 255 255
3 310 457 458 255 255 255
3 458 308 310 255 255 255
3 308 458 459 255 255 255
3 459 306 308 255 255 255
3 306 459 460 255 255 255
3 460 304 306 255 255 255
3 304 460 461 255 255 255
3 461 302 304 255 255 255
3 302 461 462 255 255 255
3 462 300 302 255 255 255
3 300 462 463 255 255 255
3 463 298 300 255 255 255
3 298 463 464 255 255 255
3 464 296 298 255 255 255
3 296 464 465 255 255 255
3 465 294 296 255 255 255
3 294 465 466 255 255 255
3 466 292 294 255 255 255
3 292 466 467 255 255 255
3 467 288 292 255 255 255
3 288 467 348 255 255 255
3 348 289 288 255 255 255
3 284 455 440 255 255 255
3 440 285 284 255 255 255
3 439 347 346 255 255 255
3 346 411 439 255 255 255
3 409 312 311 255 255 255
3 311 416 409 255 255 255
3 386 303 301 255 255 255
3 301 438 386 255 255 255
3 437 451 450 255 255 255
3 450 383 437 255 255 255
3 394 290 440 255 255 255
3 440 413 394 255 255 255
3 436 461 460 255 255 255
3 460 381 436 255 255 255
3 380 338 336 255 255 255
3 336 435 380 255 255 255
3 376 319 317 255 255 255
3 317 434 376 255 255 255
3 433 468 469 255 255 255
3 469 373 433 255 255 255
3 438 301 299 255 255 255
3 299 432 438 255 255 255
3 431 452 451 255 255 255
3 451 437 431 255 255 255
3 436 462 461 255 255 255
3 435 336 334 255 255 255
3 334 429 435 255 255 255
3 434 317 315 255 255 255
3 315 428 434 255 255 255
3 427 470 468 255 255 255
3 468 433 427 255 255 255
3 432 299 297 255 255 255
3 297 426 432 255 255 255
3 425 453 452 255 255 255
3 452 431 425 255 255 255
3 424 463 462 255 255 255
3 462 430 424 255 255 255
3 429 334 332 255 255 255
3 332 423 429 255 255 255
3 428 315 313 255 255 255
3 313 422 428 255 255 255
3 421 471 470 255 255 255
3 470 427 421 255 255 255
3 426 297 295 255 255 255
3 295 420 426 255 255 255
3 419 454 453 255 255 255
3 453 425 419 255 255 255
3 418 464 463 255 255 255
3 463 424 418 255 255 255
3 423 332 330 255 255 255
3 330 417 423 255 255 255
3 422 313 283 255 255 255
3 283 377 422 255 255 255
3 415 472 471 255 255 255
3 471 421 415 255 255 255
3 420 295 293 255 255 255
3 293 412 420 255 255 255
3 414 455 454 255 255 255
3 454 419 414 255 255 255
3 473 474 475 255 255 255
3 475 476 473 255 255 255
3 417 330 328 255 255 255
3 328 407 417 255 255 255
3 378 286 348 255 255 255
3 348 389 378 255 255 255
3 416 311 309 255 255 255
3 309 406 416 255 255 255
3 448 477 472 255 255 255
3 472 415 405 255 255 255
3 405 448 472 255 255 255
3 413 440 455 255 255 255
3 455 414 413 255 255 255
3 412 293 291 255 255 255
3 291 402 412 255 255 255
3 401 457 456 255 255 255
3 456 408 401 255 255 255
3 411 346 344 255 255 255
3 344 400 411 255 255 255
3 399 466 465 255 255 255
3 465 410 399 255 255 255
3 408 456 312 255 255 255
3 312 409 408 255 255 255
3 407 328 325 255 255 255
3 325 398 407 255 255 255
3 397 478 479 255 255 255
3 479 403 397 255 255 255
3 406 309 307 255 255 255
3 307 396 406 255 255 255
3 446 445 448 255 255 255
3 448 405 395 255 255 255
3 395 446 448 255 255 255
3 403 479 480 255 255 255
3 480 404 403 255 255 255
3 402 291 287 255 255 255
3 287 393 402 255 255 255
3 392 458 457 255 255 255
3 457 401 392 255 255 255
3 400 344 342 255 255 255
3 342 391 400 255 255 255
3 390 467 466 255 255 255
3 466 399 390 255 255 255
3 398 325 323 255 255 255
3 323 388 398 255 255 255
3 387 481 478 255 255 255
3 478 397 387 255 255 255
3 396 307 305 255 255 255
3 305 385 396 255 255 255
3 384 449 446 255 255 255
3 446 395 384 255 255 255
3 393 287 290 255 255 255
3 290 394 393 255 255 255
3 382 459 458 255 255 255
3 458 392 382 255 255 255
3 391 342 340 255 255 255
3 340 379 391 255 255 255
3 389 348 467 255 255 255
3 467 390 389 255 255 255
3 388 323 321 255 255 255
3 321 375 388 255 255 255
3 374 482 481 255 255 255
3 481 387 374 255 255 255
3 385 305 303 255 255 255
3 303 386 385 255 255 255
3 383 450 449 255 255 255
3 449 384 383 255 255 255
3 381 460 459 255 255 255
3 459 382 381 255 255 255
3 379 340 338 255 255 255
3 338 380 379 255 255 255
3 377 283 286 255 255 255
3 286 378 377 255 255 255
3 375 321 319 255 255 255
3 319 376 375 255 255 255
3 373 469 482 255 255 255
3 482 374 373 255 255 255
3 464 474 483 255 255 255
3 483 465 464 255 255 255
3 465 483 484 255 255 255
3 484 410 465 255 255 255
3 418 475 474 255 255 255
3 474 464 418 255 255 255
3 410 484 475 255 255 255
3 475 418 410 255 255 255
3 485 473 476 255 255 255
3 476 486 485 255 255 255
3 487 483 474 255 255 255
3 474 473 487 255 255 255
3 476 475 484 255 255 255
3 484 488 476 255 255 255
3 488 484 483 255 255 255
3 483 487 488 255 255 255
3 489 486 490 255 255 255
3 490 491 489 255 255 255
3 492 487 473 255 255 255
3 473 485 492 255 255 255
3 486 476 488 255 255 255
3 488 490 486 255 255 255
3 490 488 487 255 255 255
3 487 492 490 255 255 255
3 493 494 489 255 255 255
3 489 495 493 255 255 255
3 491 490 492 255 255 255
3 492 496 491 255 255 255
3 494 485 486 255 255 255
3 486 489 494 255 255 255
3 496 492 485 255 255 255
3 485 494 496 255 255 255
3 497 498 493 255 255 255
3 493 499 497 255 255 255
3 498 496 494 255 255 255
3 494 493 498 255 255 255
3 495 489 491 255 255 255
3 491 500 495 255 255 255
3 500 491 496 255 255 255
3 496 498 500 255 255 255
3 501 502 503 255 255 255
3 503 504 501 255 255 255
3 502 495 500 255 255 255
3 500 503 502 255 255 255
3 503 500 498 255 255 255
3 498 497 503 255 255 255
3 499 493 495 255 255 255
3 495 502 499 255 255 255
3 505 506 501 255 255 255
3 501 507 505 255 255 255
3 504 503 497 255 255 255
3 497 508 504 255 255 255
3 506 499 502 255 255 255
3 502 501 506 255 255 255
3 508 497 499 255 255 255
3 499 506 508 255 255 255
3 509 507 510 255 255 255
3 510 511 509 255 255 255
3 512 508 506 255 255 255
3 506 505 512 255 255 255
3 507 501 504 255 255 255
3 504 510 507 255 255 255
3 510 504 508 255 255 255
3 508 512 510 255 255 255
3 513 511 514 255 255 255
3 514 515 513 255 255 255
3 511 510 512 255 255 255
3 512 514 511 255 255 255
3 516 505 507 255 255 255
3 507 509 516 255 255 255
3 514 512 505 255 255 255
3 505 516 514 255 255 255
3 513 515 517 255 255 255
3 517 518 513 255 255 255
3 517 516 509 255 255 255
3 509 518 517 255 255 255
3 515 514 516 255 255 255
3 516 517 515 255 255 255
3 518 509 511 255 255 255
3 511 513 518 255 255 255
3 519 520 472 255 255 255
3 472 521 331 255 255 255
3 331 522 519 255 255 255
3 519 472 331 255 255 255
3 442 441 333 255 255 255
3 471 523 442 255 255 255
3 442 333 471 255 255 255
3 524 523 471 255 255 255
3 471 472 520 255 255 255
3 520 524 471 255 255 255
3 444 522 331 255 255 255
3 331 333 441 255 255 255
3 441 444 331 255 255 255
3 444 443 519 255 255 255
3 519 522 444 255 255 255
3 443 524 520 255 255 255
3 520 519 443 255 255 255
3 442 523 524 255 255 255
3 524 443 442 255 255 255
3 337 468 470 255 255 255
3 470 335 337 255 255 255
3 525 469 468 255 255 255
3 468 337 525 255 255 255
3 526 482 469 255 255 255
3 469 525 526 255 255 255
3 527 481 482 255 255 255
3 482 526 527 255 255 255
3 528 478 481 255 255 255
3 481 527 528 255 255 255
3 480 479 478 255 255 255
3 478 528 480 255 255 255
3 529 53 201 255 255 255
3 201 228 529 255 255 255
3 530 529 228 255 255 255
3 228 240 530 255 255 255
3 531 530 240 255 255 255
3 240 239 531 255 255 255
3 532 531 239 255 255 255
3 239 237 532 255 255 255
3 238 532 237 255 255 255
3 237 236 238 255 255 255
3 335 470 471 255 255 255
3 471 333 335 255 255 255
3 51 49 229 255 255 255
3 229 200 51 255 255 255
3 427 173 174 255 255 255
3 174 200 51 255 255 255
3 533 335 470 255 255 255
3 470 427 174 255 255 255
3 174 51 534 255 255 255
3 535 533 470 255 255 255
3 470 174 534 255 255 255
3 534 535 470 255 255 255
3 429 334 335 255 255 255
3 534 51 50 255 255 255
3 50 178 177 255 255 255
3 177 429 335 255 255 255
3 535 534 50 255 255 255
3 50 177 335 255 255 255
3 533 535 50 255 255 255
3 50 335 533 255 255 255
3 536 537 538 255 255 255
3 538 539 540 255 255 255
3 541 542 534 255 255 255
3 535 533 543 255 255 255
3 543 536 538 255 255 255
3 538 540 541 255 255 255
3 541 534 535 255 255 255
3 535 543 538 255 255 255
3 538 541 535 255 255 255
3 207 235 206 255 255 255
3 206 277 47 255 255 255
3 206 235 277 255 255 255
3 235 230 277 255 255 255
3 448 329 331 255 255 255
3 331 544 448 255 255 255
3 331 521 544 255 255 255
3 544 477 448 255 255 255
3 544 521 477 255 255 255
3 521 472 477 255 255 255
3 222 180 192 255 255 255
3 436 430 462 255 255 255
